<svg viewBox="0 0 54 54" xmlns="http://www.w3.org/2000/svg" id="cloud-sun">
<path d="M23.625 26.9998C25.1919 26.9996 26.7433 27.3111 28.1887 27.9164C29.6341 28.5216 30.9446 29.4083 32.044 30.5249C33.1433 31.6416 34.0095 32.9658 34.5921 34.4204C35.1747 35.8751 35.4621 37.4311 35.4375 38.9979C35.4335 39.2573 35.4894 39.5141 35.6008 39.7484C35.7123 39.9827 35.8762 40.1882 36.0799 40.3488C36.2837 40.5094 36.5217 40.6209 36.7755 40.6746C37.0293 40.7283 37.2921 40.7228 37.5435 40.6584C38.2918 40.4667 39.0741 40.4484 39.8305 40.605C40.587 40.7616 41.2977 41.0889 41.9085 41.5619C42.5192 42.0349 43.0139 42.6412 43.3547 43.3345C43.6955 44.0278 43.8734 44.7897 43.875 45.5623C43.875 46.9049 43.3416 48.1926 42.3922 49.142C41.4428 50.0914 40.1551 50.6248 38.8125 50.6248H10.125C9.22756 50.6197 8.34017 50.4357 7.51471 50.0836C6.68925 49.7315 5.94229 49.2183 5.31752 48.5741C4.69275 47.9299 4.20271 47.1676 3.87608 46.3317C3.54944 45.4958 3.39276 44.6032 3.4152 43.7061C3.43764 42.8089 3.63875 41.9253 4.00676 41.1068C4.37478 40.2883 4.90232 39.5514 5.55851 38.9392C6.21471 38.3271 6.98639 37.8519 7.82842 37.5415C8.67045 37.2311 9.56593 37.0917 10.4625 37.1315C10.8513 37.1515 11.2352 37.0364 11.5489 36.8058C11.8626 36.5751 12.0869 36.243 12.1837 35.8659C12.8384 33.3289 14.3174 31.0814 16.3884 29.4766C18.4594 27.8717 21.0049 27.0005 23.625 26.9998ZM38.7213 37.1248C38.3416 33.703 36.8106 30.5117 34.3793 28.0742C31.9479 25.6367 28.7606 24.0976 25.3398 23.7093C21.9189 23.3209 18.4677 24.1063 15.5518 25.9367C12.6359 27.7671 10.4285 30.5339 9.29134 33.7835C6.68564 33.9968 4.26344 35.2097 2.53177 37.1684C0.800096 39.1271 -0.1068 41.6797 0.000914741 44.2919C0.10863 46.9041 1.2226 49.3734 3.10966 51.1829C4.99671 52.9923 7.51055 54.0017 10.125 53.9998H38.8125C41.0502 53.9998 43.1963 53.1108 44.7787 51.5285C46.361 49.9461 47.25 47.8 47.25 45.5623C47.25 43.3245 46.361 41.1784 44.7787 39.596C43.1963 38.0137 41.0502 37.1248 38.8125 37.1248H38.7213Z"/>
<path d="M35.4375 5.0625C35.4375 4.61495 35.2597 4.18572 34.9432 3.86926C34.6268 3.55279 34.1976 3.375 33.75 3.375C33.3025 3.375 32.8732 3.55279 32.5568 3.86926C32.2403 4.18572 32.0625 4.61495 32.0625 5.0625V8.4375C32.0625 8.88505 32.2403 9.31427 32.5568 9.63074C32.8732 9.94721 33.3025 10.125 33.75 10.125C34.1976 10.125 34.6268 9.94721 34.9432 9.63074C35.2597 9.31427 35.4375 8.88505 35.4375 8.4375V5.0625ZM48.0701 11.691C48.2313 11.5353 48.3599 11.3491 48.4483 11.1432C48.5367 10.9374 48.5833 10.7159 48.5852 10.4919C48.5872 10.2678 48.5445 10.0456 48.4596 9.8382C48.3748 9.63082 48.2495 9.4424 48.091 9.28396C47.9326 9.12551 47.7442 9.00021 47.5368 8.91536C47.3294 8.83051 47.1072 8.78782 46.8831 8.78977C46.6591 8.79171 46.4376 8.83826 46.2318 8.9267C46.0259 9.01514 45.8397 9.1437 45.684 9.30487L43.2945 11.691C42.9776 12.0079 42.7996 12.4376 42.7996 12.8857C42.7996 13.3339 42.9776 13.7636 43.2945 14.0805C43.6114 14.3974 44.0411 14.5754 44.4893 14.5754C44.9374 14.5754 45.3671 14.3974 45.684 14.0805L48.0701 11.691ZM21.816 9.30487C21.4977 8.99748 21.0715 8.82739 20.629 8.83124C20.1866 8.83508 19.7633 9.01255 19.4504 9.32543C19.1376 9.63831 18.9601 10.0616 18.9562 10.504C18.9524 10.9465 19.1225 11.3727 19.4299 11.691L21.816 14.0805C21.9729 14.2374 22.1592 14.3619 22.3642 14.4468C22.5692 14.5317 22.7889 14.5754 23.0108 14.5754C23.2326 14.5754 23.4524 14.5317 23.6573 14.4468C23.8623 14.3619 24.0486 14.2374 24.2055 14.0805C24.3624 13.9236 24.4869 13.7373 24.5718 13.5323C24.6567 13.3273 24.7004 13.1076 24.7004 12.8857C24.7004 12.6639 24.6567 12.4442 24.5718 12.2392C24.4869 12.0342 24.3624 11.8479 24.2055 11.691L21.816 9.30487ZM27.6683 20.6921C28.0877 19.8229 28.6887 19.0537 29.4307 18.4364C30.1728 17.8192 31.0385 17.3682 31.9696 17.114C32.9007 16.8598 33.8755 16.8082 34.8282 16.9627C35.781 17.1173 36.6895 17.4743 37.4925 18.0098C38.2955 18.5453 38.9743 19.2468 39.4832 20.067C39.992 20.8871 40.3191 21.8069 40.4423 22.7642C40.5655 23.7214 40.4819 24.694 40.1973 25.6163C39.9126 26.5385 39.4335 27.389 38.7923 28.1104C39.4639 29.0588 40.0478 30.0746 40.5338 31.1411C41.6775 30.1077 42.5702 28.8268 43.1438 27.396C43.7174 25.9652 43.9567 24.4223 43.8435 22.885C43.7303 21.3476 43.2676 19.8565 42.4906 18.5251C41.7137 17.1937 40.643 16.0574 39.3602 15.2026C38.0774 14.3479 36.6164 13.7973 35.0885 13.5929C33.5606 13.3885 32.0062 13.5356 30.5439 14.0231C29.0815 14.5106 27.7497 15.3256 26.6501 16.4058C25.5505 17.4861 24.7121 18.8032 24.1988 20.2568C25.3868 20.2939 26.5478 20.4424 27.6683 20.6921ZM42.8018 34.4419C44.8268 35.1675 46.5986 36.4331 47.9385 38.0599C48.1222 37.9111 48.2727 37.7253 48.38 37.5147C48.4874 37.304 48.5493 37.0732 48.5617 36.837C48.5741 36.6009 48.5367 36.3649 48.4521 36.1441C48.3674 35.9234 48.2373 35.7229 48.0701 35.5556L45.684 33.1695C45.4434 32.9275 45.1352 32.7641 44.7998 32.7009C44.4645 32.6377 44.1179 32.6776 43.8057 32.8154C43.4936 32.9532 43.2305 33.1824 43.0513 33.4728C42.872 33.7632 42.785 34.1011 42.8018 34.4419ZM48.9375 21.9375C48.49 21.9375 48.0607 22.1153 47.7443 22.4318C47.4278 22.7482 47.25 23.1774 47.25 23.625C47.25 24.0726 47.4278 24.5018 47.7443 24.8182C48.0607 25.1347 48.49 25.3125 48.9375 25.3125H52.3125C52.7601 25.3125 53.1893 25.1347 53.5057 24.8182C53.8222 24.5018 54 24.0726 54 23.625C54 23.1774 53.8222 22.7482 53.5057 22.4318C53.1893 22.1153 52.7601 21.9375 52.3125 21.9375H48.9375Z" />
</svg>
