<svg viewBox="0 0 95 95" xmlns="http://www.w3.org/2000/svg" id="sun">
<path d="M47.5001 4.94727C49.1397 4.94727 50.4688 6.27642 50.4688 7.91602V11.8743C50.4688 13.5139 49.1397 14.8431 47.5001 14.8431C45.8605 14.8431 44.5313 13.5139 44.5313 11.8743V7.91602C44.5313 6.27642 45.8605 4.94727 47.5001 4.94727Z" />
<path d="M24.7397 47.4993C24.7397 34.9291 34.9298 24.7389 47.5001 24.7389C60.0703 24.7389 70.2605 34.9291 70.2605 47.4993C70.2605 60.0696 60.0703 70.2598 47.5001 70.2598C34.9298 70.2598 24.7397 60.0696 24.7397 47.4993ZM47.5001 30.6764C38.209 30.6764 30.6772 38.2083 30.6772 47.4993C30.6772 56.7904 38.209 64.3223 47.5001 64.3223C56.7911 64.3223 64.323 56.7904 64.323 47.4993C64.323 38.2083 56.7911 30.6764 47.5001 30.6764Z"/>
<path d="M21.6097 17.4106C20.4503 16.2512 18.5706 16.2512 17.4113 17.4106C16.2519 18.5699 16.2519 20.4496 17.4113 21.609L20.2102 24.408C21.3696 25.5674 23.2493 25.5674 24.4087 24.408C25.568 23.2486 25.568 21.3689 24.4087 20.2095L21.6097 17.4106Z" />
<path d="M90.0522 47.4993C90.0522 49.1389 88.723 50.4681 87.0834 50.4681H83.1251C81.4855 50.4681 80.1563 49.1389 80.1563 47.4993C80.1563 45.8597 81.4855 44.5306 83.1251 44.5306H87.0834C88.723 44.5306 90.0522 45.8598 90.0522 47.4993Z"/>
<path d="M77.5889 21.609C78.7482 20.4496 78.7482 18.5699 77.5889 17.4105C76.4295 16.2512 74.5498 16.2512 73.3904 17.4105L70.5914 20.2095C69.4321 21.3689 69.4321 23.2486 70.5914 24.4079C71.7508 25.5673 73.6305 25.5673 74.7899 24.4079L77.5889 21.609Z"/>
<path d="M47.5001 80.1556C49.1397 80.1556 50.4688 81.4848 50.4688 83.1243V87.0827C50.4688 88.7223 49.1397 90.0514 47.5001 90.0514C45.8605 90.0514 44.5313 88.7223 44.5313 87.0827V83.1243C44.5313 81.4848 45.8605 80.1556 47.5001 80.1556Z" />
<path d="M74.7902 70.5908C73.6308 69.4314 71.7511 69.4314 70.5917 70.5908C69.4323 71.7501 69.4323 73.6298 70.5917 74.7892L73.3907 77.5882C74.55 78.7476 76.4297 78.7476 77.5891 77.5882C78.7485 76.4288 78.7485 74.5491 77.5891 73.3897L74.7902 70.5908Z" />
<path d="M14.8438 47.4993C14.8438 49.1389 13.5147 50.4681 11.8751 50.4681H7.91675C6.27715 50.4681 4.948 49.1389 4.948 47.4993C4.948 45.8597 6.27715 44.5306 7.91675 44.5306H11.8751C13.5147 44.5306 14.8438 45.8598 14.8438 47.4993Z" />
<path d="M24.4084 74.7892C25.5678 73.6298 25.5678 71.7501 24.4084 70.5907C23.249 69.4314 21.3693 69.4314 20.21 70.5907L17.411 73.3897C16.2516 74.5491 16.2516 76.4288 17.411 77.5882C18.5704 78.7475 20.4501 78.7475 21.6095 77.5882L24.4084 74.7892Z"/>
</svg>
